<svg width="29" height="29" viewBox="0 0 29 29" fill="none" xmlns="http://www.w3.org/2000/svg">
<g clip-path="url(#clip0_59_1022)">
<mask id="mask0_59_1022" style="mask-type:luminance" maskUnits="userSpaceOnUse" x="0" y="0" width="29" height="29">
<path d="M29 14.5C29 6.49187 22.5081 0 14.5 0C6.49187 0 0 6.49187 0 14.5C0 22.5081 6.49187 29 14.5 29C22.5081 29 29 22.5081 29 14.5Z" fill="white"/>
</mask>
<g mask="url(#mask0_59_1022)">
<path d="M29 0H0V29H29V0Z" fill="#E8B8FF"/>
<path d="M3.43668 37.7299C11.7657 40.5979 20.8426 36.1708 23.7105 27.8417C26.5784 19.5127 22.1513 10.4358 13.8223 7.56791C5.49328 4.7 -3.58362 9.1271 -6.45153 17.4561C-9.31944 25.7851 -4.89234 34.862 3.43668 37.7299Z" fill="#405059"/>
<path d="M6.74609 20.3464C6.87143 21.1377 7.41075 21.8302 8.24543 22.2716C9.08011 22.7129 10.1418 22.867 11.1968 22.6999C12.2519 22.5328 13.214 22.0582 13.8714 21.3805C14.5289 20.7028 14.8278 19.8775 14.7025 19.0862" fill="white"/>
<path d="M4.9225 16.5572C4.8529 16.1178 4.52932 15.8039 4.19976 15.8561C3.87019 15.9083 3.65945 16.3068 3.72904 16.7462C3.79864 17.1856 4.12223 17.4995 4.45179 17.4473C4.78135 17.3951 4.9921 16.9966 4.9225 16.5572Z" fill="white"/>
<path d="M16.0617 14.793C15.9921 14.3535 15.6685 14.0396 15.3389 14.0918C15.0094 14.144 14.7986 14.5426 14.8682 14.982C14.9378 15.4214 15.2614 15.7353 15.5909 15.6831C15.9205 15.6309 16.1313 15.2324 16.0617 14.793Z" fill="white"/>
</g>
</g>
<defs>
<clipPath id="clip0_59_1022">
<rect width="29" height="29" fill="white"/>
</clipPath>
</defs>
</svg>
